<svg xmlns="http://www.w3.org/2000/svg" viewBox="0 0 230 230"><defs><style>.a{fill:#963e91;}.a,.b,.c,.d,.e,.f,.g,.i{fill-rule:evenodd;}.b{fill:#f18f48;}.c{fill:#ec6c51;}.d{fill:#cc3e7a;}.e{fill:#e44864;}.f{fill:#e45557;}.g{fill:#f7b948;}.h,.i{fill:#35214a;}</style></defs><title>logo</title><path class="a" d="M115,230a114.9,114.9,0,0,1-89-42.2H204A114.9,114.9,0,0,1,115,230Z"/><path class="b" d="M199.9,37.5H30A123.28,123.28,0,0,1,49.6,20.3H180.2A112.07,112.07,0,0,1,199.9,37.5Z"/><path class="c" d="M206.5,45.4a115.9,115.9,0,0,1,12.9,21.4H10.6A115.9,115.9,0,0,1,23.5,45.4Z"/><path class="d" d="M209.9,179.9H20.1A113.17,113.17,0,0,1,4.2,145.8H225.8A113.17,113.17,0,0,1,209.9,179.9Z"/><path class="e" d="M229.8,108.1c.1,2.3.2,4.6.2,6.9a116.5,116.5,0,0,1-2.3,23H2.3A115.75,115.75,0,0,1,0,115c0-2.3.1-4.6.2-6.9Z"/><path class="f" d="M229,100.2H.9A109.14,109.14,0,0,1,7.3,74.6H222.7A114.16,114.16,0,0,1,229,100.2Z"/><path class="g" d="M62.8,12.5a115.24,115.24,0,0,1,104.4,0Z"/><path class="h" d="M171.7,60.7a1.41,1.41,0,0,0,1.6-.2c5.2-5.3,10.1-1.9,10.1-1.9C177,56.2,173,64.1,173,64.1c-4.2-5.3-12.2-3.6-12.2-3.6A11.27,11.27,0,0,1,171.7,60.7Z"/><path class="i" d="M191.4,123.7c-2.1-1.3-4.5-1.7-6.8-2.6a5.46,5.46,0,0,1,.6,1.8,14.25,14.25,0,0,1-2.8-1.3,11.74,11.74,0,0,0-6.4-1.3,12.7,12.7,0,0,1,4.3,3.3c-2.8,0-5.4-1.7-8.2-1.4-1.6.1-3.3-.2-5,.2a48.75,48.75,0,0,0-5.2,1.2c4,.9,7.4,3.2,10.7,5.6a25.09,25.09,0,0,1,4.8,3.8c2.2,2.4,4.7,4.8,6.1,7.8a15.11,15.11,0,0,1,1.5,5.8,17,17,0,0,1-3-2.3,36.1,36.1,0,0,0-7.1-6.4l.6,2.1c-1.5-.8-2.8-2.1-4.3-2.9-1.2-.7-2.1-1.8-3.4-2.5-1.6-.9-3-1.9-4.5-2.9a53.19,53.19,0,0,0,2.1,5,31.68,31.68,0,0,1,3.1,7.9,3.51,3.51,0,0,1,1.4.6,34,34,0,0,0-.3,4.5,20.82,20.82,0,0,0,1.2,5.5c.6,2.2.3,4.6.5,6.8.6.2,1.3.3,1.9.5-.9,2.2-1,4.5-1.7,6.8a22,22,0,0,0-.4,5.1c-.1,1.4.3,2.7.1,4.1s-.2,2.8-.4,4.2c.7.4,1.3.8,1.9,1.2a38.13,38.13,0,0,0-4.3,10.2,23.37,23.37,0,0,1-1.9,5,53.28,53.28,0,0,1-4.9,9.5,17.41,17.41,0,0,1,1.4,1.2c-.7.8-1.5,1.6-2.3,2.4-1.6,1.7-3.8,2.9-5.2,4.9-1.2,1.8-2.8,3.2-3.9,5.1-.6,1-1.5.4-2.2,1.4-1,1.6-2.3-2.2-3.4-.7-.7,1-1.6,1-2.8,1.3a3.49,3.49,0,0,1-3.3-.3c-2.1-1.6-4.6,2.8-7.2,2.4-1.5-.1-3.1.9-4.1-.3a2.58,2.58,0,0,1,0-2.8c.9-.7,2.1-.8,3.1-1.4a16.46,16.46,0,0,0,4.4-3.9c2.5-2.8,5.1-5.5,7.4-8.4a10.16,10.16,0,0,0,1.6-3.7c.6-2,1.3-4,1.9-5.9a15.92,15.92,0,0,1,2.2,1.3c3.1-4.4,6.4-8.8,8.1-13.9.8-1.4.5-3.1.8-4.6a18,18,0,0,0-.1-4c.7.1,1.5.3,2.2.4.3-1.6.9-3.2,1.1-4.8.4-2.4-.1-4.8-.3-7.1-.2-1.7-.9-3.3-.9-4.9.5-.1,1-.1,1.5-.2,0-1.2-.1-2.5-.1-3.7a15.63,15.63,0,0,0-.6-5.7,31.55,31.55,0,0,1-1.3-5.3,6.12,6.12,0,0,1,1.2-.5,27.55,27.55,0,0,0-.9-5,17.67,17.67,0,0,1-.8-3.3,4,4,0,0,1-3.8.4,16.87,16.87,0,0,1-2,5.7,27.59,27.59,0,0,1-.8-2.7,66.22,66.22,0,0,1-3.3,10.7,9.31,9.31,0,0,1-1.8,3.4,12.42,12.42,0,0,1-.4-3.3c-.8,1.9-2.2,3.4-3,5.2a7,7,0,0,1-2.6,2.8,19.89,19.89,0,0,1,.5-4.9,56.5,56.5,0,0,1,1.7-10c1-3.4,2.5-6.5,3.8-9.8a9.53,9.53,0,0,1-2.9,1.3l-3.3.6c.3-1.7,1.8-2.3,3-3.3-1.7.3-2.9,1.6-4.4,2.3a52.51,52.51,0,0,1-5.3,4.3,5.31,5.31,0,0,1,.6-2.7A9.61,9.61,0,0,0,133,140a16.72,16.72,0,0,1-3.5,2.4c-.5-.1-.3-.6-.3-.9.1-.8.4-1.5.5-2.3.4-1.9,1.8-3.4,3-4.8,3.3-2.7,6.8-5.4,11.1-6.5a6.82,6.82,0,0,0-4,0c-1.5.5-3.1.6-4.6,1.2a16.31,16.31,0,0,1-4.2,1.1,9.54,9.54,0,0,1,4-4.2c-1.4.3-2.9.2-4.3.6s-3,.5-4.3,1.3c-2.8,1.5-5.5,3-8.1,4.7a30,30,0,0,1,.8-5.1c.5-2,2.1-3.5,3.5-5,1.7-1.3,3.1-3.2,5.2-3.7a17,17,0,0,1,9.7-1c2.7.5,5.5.6,8.1,1.4a57.79,57.79,0,0,1-11.7-10.4,21.31,21.31,0,0,1-3.6-7.8c1.4.8,2.2,2.2,3.3,3.3-1.2-3.2-1.5-6.6-2-9.9,0-1.4.1-2.8.1-4.2,1.5,1.7,2.6,3.7,4,5.5,2.3,3,4.2,6.2,6.3,9.2a18.21,18.21,0,0,1-.1-3.3,10.53,10.53,0,0,1,1.7,2.9c1.3,2.4,2.4,4.9,3.9,7.3a39.82,39.82,0,0,0-.6-9.1c-.1-2.2-.1-4.5,1.2-6.3.3,1.1.5,2.3.8,3.4.3-1.4.9-2.7,1.2-4.1,0-1.7-.6-3.3-.5-5a13.57,13.57,0,0,1,.7-2.5,15.93,15.93,0,0,1,1.5,2.9c.4-1.9,1.8-3.8,1.1-5.8a35.6,35.6,0,0,1-1-4.7,7.29,7.29,0,0,1,3.8,5.5c.7,3.5,1.3,7.2.2,10.7-.4,1.5-.5,3-.8,4.5-.7,3.3-.6,6.6-.9,9.9,1.3-2.5,2.9-4.7,4.4-7a41.55,41.55,0,0,1,6.2-7.1c2-1.8,4.7-2.4,7.2-3.1,1.5-.5,3.1-.1,4.7-.1a16.46,16.46,0,0,1,4.9.6,18.87,18.87,0,0,1,4.8,3.6,3.79,3.79,0,0,1-1.5,0c-1-.1-2,.3-3,.2a5.55,5.55,0,0,0-2.2.6c-1,.4-2.1.4-3,1-1.1.7-2.4,1.2-3.5,2a7.93,7.93,0,0,1,4.5,1.1,12.93,12.93,0,0,0-4,.8c-2.2.7-4.1,2.2-6.2,3.2a8.33,8.33,0,0,0-3,2.6,14.46,14.46,0,0,1,2.2-.9,6.69,6.69,0,0,1,2,0,23.91,23.91,0,0,0-2.3,2.2,16.44,16.44,0,0,1-3.3,2.6,16,16,0,0,0-2.7,2.5,12,12,0,0,1,2.6-1.1c1.4-.4,2.6-1.4,4.1-1.7a28.08,28.08,0,0,1,4.1-.1,19.68,19.68,0,0,1,7.6.7c3.4,1,6.2,3.2,9.2,5,2,1.6,4.2,3.3,5.2,5.8C192.7,124.1,192,124.1,191.4,123.7ZM139.1,58.4a19.09,19.09,0,0,1,4.1,1.1c-1.6,1.1-3.7.5-5.4,1.3a40.23,40.23,0,0,0-6.3,3c1.5.3,3.1.4,4.6.8a11.07,11.07,0,0,1-2.7,1.2c-2.7.6-5.2,2-8,2.1-1.9.1-3.9-.1-5.8.1a8,8,0,0,1,3.3,3.5c-2.2,0-4-1.4-6.2-1.5a30.92,30.92,0,0,0-8.6.6c-1.8.4-3.1,1.7-4.5,2.7,5.9,1.2,12,3.4,16.1,8a14.59,14.59,0,0,1,3.8,9.5c0,2.7,1,5.3,1.5,7.9s2.1,4.8,2.8,7.4c.4,2.3,1.2,4.8-.4,6.8-.3-2.9-3.2-4.1-5.2-5.7a12.76,12.76,0,0,1,.6,3.3c-1.1-1-2.3-2-3.3-3.1-1.3-1.2-2.9-2.1-3.7-3.8a5.63,5.63,0,0,0-2.4-3.1c-.8.5-.7.4-.9,2.3-1.3-1.2-1.2-3.1-1.4-4.7a87,87,0,0,1,.4-8.9,9.59,9.59,0,0,1-3.7,2.6c.1-1.5.7-3,.6-4.5-.5-3.4-3.5-5.5-5.2-8.2a12.42,12.42,0,0,1-3.4,5.3,26,26,0,0,1,2.7,13.7c-.6,7.4-2.9,14.5-5.7,21.4-1.5,4.3-1.3,9.2-3.5,13.3-.3.7-1,.9-1.6,1.2-.7-2.4.7-4.9-.1-7.4a21.69,21.69,0,0,1-1.9,3.3c-.1,0-.2-.1-.3-.1.3-2.8.7-5.6.9-8.5-.1-1.6-.5-3.2-.7-4.7a7.41,7.41,0,0,1-2.2,2.8,49.53,49.53,0,0,1,1.3-7.7c.2-1.8-.1-3.6.2-5.4l-1.8,1.8c.3-2.5,1.6-4.7,2.5-7,1-2.7,3.2-4.8,3.8-7.7.6-2.6,1.8-5.2,1.6-7.9-.3-.2-1-.5-1.3-.7a10.59,10.59,0,0,0-1.9,2.3c-.6,1.1-.3,2.5-.8,3.6-.7,1.1-1.8,1.7-2.4,2.9-1.5,2.9-2.6,6-4.2,8.8.5,1,1.2,2.2.3,3.3a51,51,0,0,0-5,12.6,16.67,16.67,0,0,0,.8,2c-1,1.7-1.2,3.7-1.8,5.6a14.23,14.23,0,0,0-.8,4.2c-.2,2.9-.7,5.7-1.1,8.6a5.46,5.46,0,0,1,2.4,1.8c.4,2.6-1.7,4.9-1.3,7.5a94.38,94.38,0,0,0,2.3,13.1c1,.3,2.1.4,3.1.7a12,12,0,0,0-.3,10c1.1,2.9,1,6.1,2.3,9,.4,1,.9,2,1.3,3,.9,0,2.3-.4,2.9.6.2,4.5.7,9.1,2.5,13.3,1.7,4,2.6,8.4,4.9,12.1,1.2,2,1.7,4.4,2.8,6.4,1.5,2.7,2.3,5.8,3.9,8.5a1.37,1.37,0,0,1-.4,2c-1.1,1.1-2.4-.4-3.5-.8-4.6-1.9-9.1-4-13.6-6.1-1.4-.7-3.2-1.1-4-2.5-1.3-2.6-.8-5.7-1.9-8.4-.9-3.7-2.5-7.2-3.8-10.8-1.4-2.4-2.1-5.1-3.4-7.6-.3-.9.8-1.3,1.2-1.9a37.69,37.69,0,0,1-4.7-13.8c-.3-3-2.4-5.4-3.4-8.3.2-.9,1-1.4,1.6-2.1a11.12,11.12,0,0,1-.6-4c.5-4.5-2.1-8.7-1.8-13.2-.3-2.3-1-4.6-1.2-7a9.61,9.61,0,0,1,2.1-1.4c.5-3.8-.2-7.6.7-11.3a69.61,69.61,0,0,0,1.9-11.1l1.6-.3a32,32,0,0,1,.9-5.4,28.47,28.47,0,0,0,1.1-3.9,9.23,9.23,0,0,1-.5-3.7A29,29,0,0,1,69,105c-2.4,2.3-3.6,5.5-5.7,8-.4-1.3.1-2.5.3-3.8-2.7,1.7-3.1,5.2-4.5,7.8-1.6-2.6-1.3-5.9-.5-8.8,3-7.4,8.4-13.5,13.8-19.4,3.9-4,7.7-8.1,12.5-11,1-.6.6-1.5.9-2.5a16.33,16.33,0,0,0-11,4.8c-2.5,1.8-4,5.1-7.2,5.9a33.71,33.71,0,0,1,1.9-3.2c-1.7.5-3.2,1.5-4.9,2a7,7,0,0,0-2.4.9A40.25,40.25,0,0,1,56.5,89c.9-1.8,2.1-3.6,1.9-5.7C56,85.2,54,87.7,51,88.7a47.76,47.76,0,0,0-9,5.2c-1.2.8-2,2.3-3.6,2.4.9-1.7,2-3.2,3-4.8a13.18,13.18,0,0,0-6.3,5.1c-.7.8-1.1,2.2-2.4,2,.7-2.7.9-5.6,2.2-8.2A39.16,39.16,0,0,1,52.4,72.6a48.61,48.61,0,0,1,16.7-4.4c8.2-.7,16.8-.8,24.4,2.8a14.52,14.52,0,0,0-3.6-3.8c-3.5-2.4-7.5-4-11.4-5.7a9.8,9.8,0,0,1-2.7-1.8c.7.1,1.5.1,2.2.2-5.3-2.9-11.2-4.1-16.4-7.1,1.4.1,2.7.3,4.1.4-2.7-1-5.1-2.6-7.8-3.6-2-.9-4.1-2.1-5.1-4.1a22.38,22.38,0,0,1,3.7,1,25,25,0,0,1-2.3-2.3c-2-2.6-5.3-3.7-7.4-6.2a13.74,13.74,0,0,1,3.6,1.1c-1.7-1.9-3.6-3.9-6.1-4.7a47.8,47.8,0,0,1-4.8-1.9,32.06,32.06,0,0,1,12.7-1.3,42.86,42.86,0,0,1,14.6,3.1c3.3,1.4,6.1,3.8,9.3,5.5A46.26,46.26,0,0,1,96.4,63.9c.2.6.5,1.2.7,1.8A15,15,0,0,0,94.9,58a24.17,24.17,0,0,1-1.5-9.6,29.77,29.77,0,0,0,2,2.9,76.3,76.3,0,0,0,.4-11.7A19.2,19.2,0,0,0,97.3,41c.5-1.9.9-3.8,1.4-5.7.6-1.7-.6-3.4-.2-5.2.9-.9,1.7.9,2.3,1.4.7-3.7.8-7.4,1.5-11,.2-.5.3-2,1.1-1.3.9,3.8,2.2,7.4,2.7,11.3a36.61,36.61,0,0,1-.1,7.4c-.3,2.5-.2,5.1-.6,7.7-.3,2.4-1.1,4.8-1.2,7.3-.4,4.6-.5,9.4-2,13.8,2.7-1.6,5.1-3.8,7.8-5.4,2.3-1.4,4.6-2.8,7-4.1,6.3-2.5,13-4.5,19.9-3.9,3.1.2,6,1.3,9,1.9a4.18,4.18,0,0,1,2.6,1.9,33.82,33.82,0,0,0-5.5.3C141.8,57.1,140.5,57.8,139.1,58.4Z"/><path class="h" d="M198.3,87.56a2.23,2.23,0,0,0,2.6,1.1c12.6-3.5,17.2,6,17.2,6-7.7-9.4-20.8-.8-20.8-.8-1.7-11.9-15.6-16.3-15.6-16.3C191.9,78.26,196.6,84.56,198.3,87.56Z"/><path class="i" d="M115,230a113.91,113.91,0,0,1-64.9-20.1c7-3.2,20.5-4.7,33.3-.1,22.5,8.2,20.5,10,42.2,9.1,19.3-.8,32.8-11.9,50.2-6.3A114.78,114.78,0,0,1,115,230Z"/></svg>